<svg id="Calque_1" data-name="Calque 1" xmlns="http://www.w3.org/2000/svg" viewBox="0 0 370.35 183.33"><defs><style>.cls-1{fill:#6abd45;}.cls-2{fill:#020202;}.cls-3{fill:#fff;}.cls-4,.cls-5{fill:#227a4b;}.cls-5{fill-rule:evenodd;}</style></defs><title>Complet</title><path class="cls-1" d="M158.15,33.22h0a38.31,38.31,0,0,1-7.05,6.85c-12,11.74-23.65,21.36-30.53,27,.16.93.29,1.85.43,2.78a134.76,134.76,0,0,1,.61,37.06c17.7,4.39,75.65,31.61-19.11,64.55,14.3-9.48,23.61-16.8,29.17-22.52,13.27-13.66,5.19-18.22-7.46-21.3-1.93-.47-4-.91-6-1.34l-.13-.06s-.36,0-1-.13a157.92,157.92,0,0,1-16.85,37.16v0A129.24,129.24,0,0,1,82,186.51a71.81,71.81,0,0,0,20,2.3A87.93,87.93,0,0,0,158.15,33.22Z" transform="translate(-14.07 -12.95)"/><path class="cls-2" d="M215.24,55.87c0-12.69,8.66-22.52,20.76-22.52,5.72,0,10.76,2.18,13.87,7V38.3c0-2.6,1.43-4,4-4h5c2.6,0,4,1.43,4,4V73.43c0,2.6-1.43,4-4,4h-5c-2.6,0-4-1.43-4-4v-2c-3.11,4.79-8.15,7-13.87,7C223.9,78.39,215.24,68.64,215.24,55.87Zm34.79,0c0-6.9-4.37-12.1-11-12.1-6.81,0-10.76,5.46-10.76,12.1S232.22,68,239,68C245.66,68,250,62.76,250,55.87Z" transform="translate(-14.07 -12.95)"/><path class="cls-2" d="M313.24,73.43V20.74c0-2.61,1.43-4,4-4h4.88c2.6,0,4.11,1.42,4.11,4V73.43c0,2.6-1.51,4-4.11,4h-4.88C314.67,77.46,313.24,76,313.24,73.43Z" transform="translate(-14.07 -12.95)"/><path class="cls-2" d="M349.8,71.41v2c0,2.6-1.52,4-4.12,4h-4.87c-2.61,0-4-1.43-4-4V20.74c0-2.61,1.43-4,4-4h4.87c2.6,0,4.12,1.42,4.12,4V40.4c3.11-4.87,8.15-7,13.78-7,12.18,0,20.84,9.83,20.84,22.52s-8.66,22.52-20.84,22.52C358,78.39,352.91,76.2,349.8,71.41Zm21.59-15.54c0-6.64-4-12.1-10.75-12.1s-11,5.2-11.09,12.1c.08,6.89,4.36,12.1,11.09,12.1S371.39,62.59,371.39,55.87Z" transform="translate(-14.07 -12.95)"/><path class="cls-2" d="M215.24,111.33c0-3.52,2.41-6.31,5.91-6.31a4.74,4.74,0,0,1,4.1,2.07v-.79a.92.92,0,0,1,1-1h1.05a.94.94,0,0,1,1,1v10.09a.92.92,0,0,1-1,1h-1.05a.91.91,0,0,1-1-1v-.81a4.76,4.76,0,0,1-4.1,2.07C217.65,117.65,215.24,114.86,215.24,111.33Zm10.06,0a3.52,3.52,0,0,0-3.55-3.76,3.45,3.45,0,0,0-3.43,3.76c0,2.08,1.26,3.77,3.43,3.77A3.53,3.53,0,0,0,225.3,111.33Z" transform="translate(-14.07 -12.95)"/><path class="cls-2" d="M230.91,115.27c-.31-.65,0-1.1.67-1.27l.62-.14c.57-.14.86.12,1.26.57a2.56,2.56,0,0,0,2,.86c1,0,1.79-.57,1.79-1.33s-.5-1-1.29-1.27l-1.55-.55c-1.54-.47-3.21-1.43-3.21-3.4,0-2.15,1.76-3.72,4.26-3.72a4.06,4.06,0,0,1,3.77,1.93c.4.62.07,1.12-.6,1.29l-.55.14a1.15,1.15,0,0,1-1.26-.48,1.6,1.6,0,0,0-1.31-.55,1.33,1.33,0,0,0-1.48,1.27c0,.64.57,1,1.24,1.19l1.62.57c2.41.76,3.17,2.17,3.2,3.55,0,2.43-2.15,3.72-4.63,3.72A4.86,4.86,0,0,1,230.91,115.27Z" transform="translate(-14.07 -12.95)"/><path class="cls-2" d="M241.86,115.27c-.31-.65,0-1.1.66-1.27l.62-.14c.57-.14.86.12,1.27.57a2.53,2.53,0,0,0,2,.86c1.05,0,1.79-.57,1.79-1.33s-.5-1-1.29-1.27l-1.55-.55c-1.55-.47-3.22-1.43-3.22-3.4,0-2.15,1.77-3.72,4.27-3.72a4,4,0,0,1,3.76,1.93c.41.62.08,1.12-.59,1.29l-.55.14a1.15,1.15,0,0,1-1.26-.48,1.61,1.61,0,0,0-1.31-.55,1.33,1.33,0,0,0-1.48,1.27c0,.64.57,1,1.24,1.19l1.62.57c2.41.76,3.17,2.17,3.19,3.55,0,2.43-2.14,3.72-4.62,3.72A4.85,4.85,0,0,1,241.86,115.27Z" transform="translate(-14.07 -12.95)"/><path class="cls-2" d="M252.66,111.33a6.54,6.54,0,1,1,6.53,6.32A6.37,6.37,0,0,1,252.66,111.33Zm10.1,0a3.58,3.58,0,1,0-3.57,3.72A3.64,3.64,0,0,0,262.76,111.36Z" transform="translate(-14.07 -12.95)"/><path class="cls-2" d="M267.37,111.43c0-3.53,2.58-6.41,6.91-6.41a7.38,7.38,0,0,1,3.72,1,.88.88,0,0,1,.24,1.41l-.29.36c-.38.52-.81.54-1.4.26a4.9,4.9,0,0,0-2.1-.48,3.76,3.76,0,1,0,0,7.51,5.24,5.24,0,0,0,2.1-.48c.59-.28,1.05-.26,1.4.24l.29.38c.38.53.26,1.15-.53,1.55a7.08,7.08,0,0,1-3.43.86C270,117.65,267.37,114.88,267.37,111.43Z" transform="translate(-14.07 -12.95)"/><path class="cls-2" d="M280.68,101.71a1.95,1.95,0,0,1,3.88,0,1.81,1.81,0,0,1-1.95,1.78A1.79,1.79,0,0,1,280.68,101.71Zm.4,14.68V106.3a.92.92,0,0,1,1-1h1.08a.92.92,0,0,1,1,1v10.09a.91.91,0,0,1-1,1h-1.08A.91.91,0,0,1,281.08,116.39Z" transform="translate(-14.07 -12.95)"/><path class="cls-2" d="M286.69,111.33c0-3.52,2.4-6.31,5.91-6.31a4.76,4.76,0,0,1,4.1,2.07v-.79a.92.92,0,0,1,1-1h1.05a.94.94,0,0,1,1,1v10.09a.92.92,0,0,1-1,1H297.7a.9.9,0,0,1-1-1v-.81a4.78,4.78,0,0,1-4.1,2.07C289.09,117.65,286.69,114.86,286.69,111.33Zm10.05,0a3.52,3.52,0,0,0-3.55-3.76,3.45,3.45,0,0,0-3.43,3.76c0,2.08,1.26,3.77,3.43,3.77A3.53,3.53,0,0,0,296.74,111.33Z" transform="translate(-14.07 -12.95)"/><path class="cls-2" d="M303.74,113.46v-5.84H302.4a.5.5,0,0,1-.55-.55v-1.24a.5.5,0,0,1,.55-.55h1.48l.43-2.6a.76.76,0,0,1,.83-.71H306a.71.71,0,0,1,.78.78v2.53h3a.5.5,0,0,1,.54.55v1.24a.49.49,0,0,1-.54.55h-3v5.95c0,1.1.55,1.53,1.19,1.53a1.16,1.16,0,0,0,1.22-1.19,3.39,3.39,0,0,0,0-.43c0-.38.07-.6.45-.6h1.26a.56.56,0,0,1,.62.43,4.48,4.48,0,0,1,.12.91c0,2.24-1.57,3.43-3.84,3.43C305.76,117.65,303.74,116.7,303.74,113.46Z" transform="translate(-14.07 -12.95)"/><path class="cls-2" d="M313.18,101.71a1.95,1.95,0,0,1,3.88,0,1.95,1.95,0,0,1-3.88,0Zm.4,14.68V106.3a.92.92,0,0,1,1-1h1.07a.92.92,0,0,1,1,1v10.09a.91.91,0,0,1-1,1h-1.07A.91.91,0,0,1,313.58,116.39Z" transform="translate(-14.07 -12.95)"/><path class="cls-2" d="M319.16,111.33a6.55,6.55,0,1,1,6.53,6.32A6.37,6.37,0,0,1,319.16,111.33Zm10.11,0a3.58,3.58,0,1,0-3.58,3.72A3.65,3.65,0,0,0,329.27,111.36Z" transform="translate(-14.07 -12.95)"/><path class="cls-2" d="M334.71,116.39V106.3a.92.92,0,0,1,1-1h1.05a.94.94,0,0,1,1,1v1.12a3.79,3.79,0,0,1,3.83-2.4c3,0,4.53,2.14,4.53,5.46v5.91a.92.92,0,0,1-1,1h-1.05a.9.9,0,0,1-1-1v-5.77c0-2.08-.91-3-2.17-3s-3.12.93-3.12,3.89v4.91a.93.93,0,0,1-1,1h-1.05A.91.91,0,0,1,334.71,116.39Z" transform="translate(-14.07 -12.95)"/><path class="cls-2" d="M215.36,143.26c-.31-.64,0-1.09.67-1.26l.62-.14c.57-.15.86.12,1.26.57a2.6,2.6,0,0,0,2,.86c1.05,0,1.79-.57,1.79-1.34s-.5-1-1.29-1.26l-1.55-.55c-1.55-.48-3.21-1.43-3.21-3.41,0-2.14,1.76-3.71,4.26-3.71a4.06,4.06,0,0,1,3.77,1.93c.4.62.07,1.12-.6,1.28l-.55.15a1.17,1.17,0,0,1-1.26-.48,1.6,1.6,0,0,0-1.31-.55,1.32,1.32,0,0,0-1.48,1.26c0,.65.57,1,1.24,1.2l1.62.57c2.41.76,3.17,2.17,3.2,3.55,0,2.43-2.15,3.72-4.63,3.72A4.85,4.85,0,0,1,215.36,143.26Z" transform="translate(-14.07 -12.95)"/><path class="cls-2" d="M227,149.72V134.3a.92.92,0,0,1,1-1h1.05a.94.94,0,0,1,1,1v.79a4.69,4.69,0,0,1,4.1-2.07c3.5,0,5.89,2.78,5.89,6.31s-2.39,6.32-5.89,6.32a4.7,4.7,0,0,1-4.1-2.08v6.15a.92.92,0,0,1-1,1H228A.9.9,0,0,1,227,149.72Zm10-10.39c0-2.05-1.24-3.76-3.41-3.76a3.77,3.77,0,0,0,0,7.53C235.74,143.1,237,141.41,237,139.33Z" transform="translate(-14.07 -12.95)"/><path class="cls-2" d="M241.71,139.33a6.54,6.54,0,1,1,6.53,6.32A6.37,6.37,0,0,1,241.71,139.33Zm10.11,0a3.58,3.58,0,1,0-7.15,0,3.58,3.58,0,1,0,7.15,0Z" transform="translate(-14.07 -12.95)"/><path class="cls-2" d="M257.26,144.38V134.3a.92.92,0,0,1,1-1h1a.92.92,0,0,1,1,1V136a3.37,3.37,0,0,1,3.19-2.95,4.23,4.23,0,0,1,.48,0c.53.05.62.48.62,1v1.19c0,.62-.29.88-.74.81a2.74,2.74,0,0,0-.62-.07c-1.14,0-2.86.69-2.86,4.64v3.79a.92.92,0,0,1-1,1h-1.05A.9.9,0,0,1,257.26,144.38Z" transform="translate(-14.07 -12.95)"/><path class="cls-2" d="M267.18,141.45v-5.84h-1.34a.49.49,0,0,1-.55-.54v-1.24a.5.5,0,0,1,.55-.55h1.48l.43-2.6a.76.76,0,0,1,.83-.71h.84a.71.71,0,0,1,.78.78v2.53h3a.49.49,0,0,1,.54.55v1.24a.48.48,0,0,1-.54.54h-3v6c0,1.1.55,1.53,1.2,1.53a1.16,1.16,0,0,0,1.21-1.19,3.39,3.39,0,0,0,0-.43c0-.38.07-.6.45-.6h1.26a.56.56,0,0,1,.62.43,4.4,4.4,0,0,1,.12.91c0,2.24-1.57,3.43-3.84,3.43C269.2,145.65,267.18,144.69,267.18,141.45Z" transform="translate(-14.07 -12.95)"/><path class="cls-2" d="M276.62,129.7a1.78,1.78,0,0,1,1.93-1.79,1.8,1.8,0,1,1-1.93,1.79Zm.41,14.68V134.3a.92.92,0,0,1,1-1h1.07a.92.92,0,0,1,1,1v10.08a.9.9,0,0,1-1,1H278A.9.9,0,0,1,277,144.38Z" transform="translate(-14.07 -12.95)"/><path class="cls-2" d="M286.73,144.6l-4.08-10.15c-.28-.7,0-1.17.77-1.17h1.14a1.11,1.11,0,0,1,1.17.83l2.91,7.91,2.9-7.91a1.11,1.11,0,0,1,1.15-.83h1.17c.73,0,1,.47.76,1.17l-4.08,10.15a1.16,1.16,0,0,1-1.19.78h-1.43A1.19,1.19,0,0,1,286.73,144.6Z" transform="translate(-14.07 -12.95)"/><path class="cls-2" d="M295.79,139.38a6.32,6.32,0,0,1,6.58-6.36,5.93,5.93,0,0,1,6.29,5.81c0,.62-.35.95-1,.95h-8.89c0,1.84,1.57,3.34,4.08,3.34a5.47,5.47,0,0,0,3-.88,1,1,0,0,1,1.4.19l.22.26a1,1,0,0,1-.19,1.53,7.36,7.36,0,0,1-4.56,1.43C298.41,145.65,295.79,142.83,295.79,139.38Zm9.92-1.53a3.09,3.09,0,0,0-3.29-2.38,3.44,3.44,0,0,0-3.51,2.38Z" transform="translate(-14.07 -12.95)"/><path class="cls-2" d="M215.24,171.61V156.38a.91.91,0,0,1,1-1h1.08a.91.91,0,0,1,1,1v15.23a.91.91,0,0,1-1,1h-1.08A.91.91,0,0,1,215.24,171.61Z" transform="translate(-14.07 -12.95)"/><path class="cls-2" d="M220.85,166.55c0-3.52,2.41-6.31,5.91-6.31a4.75,4.75,0,0,1,4.1,2.07v-.79a.92.92,0,0,1,1-1h1a.94.94,0,0,1,1,1v10.09a.92.92,0,0,1-1,1h-1a.91.91,0,0,1-1-1v-.82a4.76,4.76,0,0,1-4.1,2.08C223.26,172.87,220.85,170.08,220.85,166.55Zm10.06,0a3.53,3.53,0,0,0-3.56-3.76,3.46,3.46,0,0,0-3.43,3.76c0,2.08,1.27,3.77,3.43,3.77A3.54,3.54,0,0,0,230.91,166.55Z" transform="translate(-14.07 -12.95)"/><path class="cls-2" d="M246.27,170.79v.82a.91.91,0,0,1-1,1h-1.05a.92.92,0,0,1-1-1V156.38a.93.93,0,0,1,1-1h1.05a.91.91,0,0,1,1,1v5.93a4.74,4.74,0,0,1,4.1-2.07c3.5,0,5.91,2.79,5.91,6.31s-2.41,6.32-5.91,6.32A4.75,4.75,0,0,1,246.27,170.79Zm6.93-4.24c0-2.05-1.24-3.76-3.43-3.76a3.77,3.77,0,0,0,0,7.53C252,170.32,253.2,168.63,253.2,166.55Z" transform="translate(-14.07 -12.95)"/><path class="cls-2" d="M258,166.55a6.55,6.55,0,1,1,6.53,6.32A6.37,6.37,0,0,1,258,166.55Zm10.11,0a3.58,3.58,0,1,0-3.58,3.72A3.65,3.65,0,0,0,268.06,166.58Z" transform="translate(-14.07 -12.95)"/><path class="cls-2" d="M273.31,167.41v-5.89a.94.94,0,0,1,1-1h1.05a.92.92,0,0,1,1,1v5.75c0,2.07.91,3,2.17,3s3.12-.94,3.12-3.87v-4.91a.94.94,0,0,1,1-1h1.05a.92.92,0,0,1,1,1v10.09a.91.91,0,0,1-1,1H282.7a.93.93,0,0,1-1-1v-1.15a3.78,3.78,0,0,1-3.83,2.41C274.88,172.87,273.31,170.72,273.31,167.41Z" transform="translate(-14.07 -12.95)"/><path class="cls-2" d="M288.05,171.61V161.52a.92.92,0,0,1,1-1h1a.92.92,0,0,1,1,1v1.67a3.36,3.36,0,0,1,3.19-2.95,2.8,2.8,0,0,1,.48,0c.52,0,.62.47.62,1v1.19c0,.62-.29.88-.74.81a2.74,2.74,0,0,0-.62-.07c-1.14,0-2.86.69-2.86,4.65v3.79a.92.92,0,0,1-1,1h-1.05A.9.9,0,0,1,288.05,171.61Z" transform="translate(-14.07 -12.95)"/><path class="cls-2" d="M296.56,170.48c-.31-.64,0-1.09.67-1.26l.62-.14c.57-.14.86.12,1.26.57a2.56,2.56,0,0,0,2,.86c1.05,0,1.79-.57,1.79-1.33s-.5-1-1.29-1.27l-1.55-.55c-1.55-.47-3.21-1.43-3.21-3.4,0-2.15,1.76-3.72,4.26-3.72a4.06,4.06,0,0,1,3.77,1.93c.4.62.07,1.12-.6,1.28l-.55.15a1.15,1.15,0,0,1-1.26-.48,1.6,1.6,0,0,0-1.31-.55,1.32,1.32,0,0,0-1.48,1.27c0,.64.57,1,1.24,1.19l1.62.57c2.41.76,3.17,2.17,3.2,3.55,0,2.43-2.15,3.72-4.63,3.72A4.85,4.85,0,0,1,296.56,170.48Z" transform="translate(-14.07 -12.95)"/><path class="cls-2" d="M307.84,156.92a1.95,1.95,0,0,1,3.88,0,1.95,1.95,0,0,1-3.88,0Zm.4,14.69V161.52a.92.92,0,0,1,1-1h1.07a.92.92,0,0,1,1,1v10.09a.91.91,0,0,1-1,1h-1.07A.91.91,0,0,1,308.24,171.61Z" transform="translate(-14.07 -12.95)"/><path class="cls-2" d="M313.87,166.55c0-3.52,2.39-6.31,5.89-6.31a4.69,4.69,0,0,1,4.1,2.07v-5.93a.92.92,0,0,1,1-1h1.05a.9.9,0,0,1,1,1v15.23a.9.9,0,0,1-1,1h-1.05a.92.92,0,0,1-1-1v-.82a4.7,4.7,0,0,1-4.1,2.08C316.26,172.87,313.87,170.08,313.87,166.55Zm10.06,0a3.54,3.54,0,0,0-3.58-3.76c-2.16,0-3.4,1.71-3.4,3.76s1.24,3.77,3.4,3.77A3.55,3.55,0,0,0,323.93,166.55Z" transform="translate(-14.07 -12.95)"/><path class="cls-2" d="M329.87,156.92a1.78,1.78,0,0,1,1.93-1.78,1.8,1.8,0,0,1,2,1.78,1.82,1.82,0,0,1-2,1.79A1.79,1.79,0,0,1,329.87,156.92Zm.41,14.69V161.52a.92.92,0,0,1,1-1h1.07a.92.92,0,0,1,1,1v10.09a.91.91,0,0,1-1,1h-1.07A.9.9,0,0,1,330.28,171.61Z" transform="translate(-14.07 -12.95)"/><path class="cls-2" d="M335.86,166.6a6.32,6.32,0,0,1,6.58-6.36,5.93,5.93,0,0,1,6.29,5.81c0,.62-.36,1-1,1h-8.89c0,1.83,1.57,3.33,4.07,3.33a5.47,5.47,0,0,0,3-.88,1,1,0,0,1,1.41.19l.21.26a1,1,0,0,1-.19,1.53,7.31,7.31,0,0,1-4.55,1.43C338.48,172.87,335.86,170.06,335.86,166.6Zm5.24-8-2.19-2.77c-.29-.38-.14-.66.31-.66h2a.66.66,0,0,1,.64.38l1.5,2.71c.22.36.05.65-.38.65h-1.19A.73.73,0,0,1,341.1,158.57Zm4.67,6.51a3.08,3.08,0,0,0-3.29-2.39,3.43,3.43,0,0,0-3.5,2.39Z" transform="translate(-14.07 -12.95)"/><path class="cls-2" d="M351.1,171.61V161.52a.92.92,0,0,1,1-1h1a.92.92,0,0,1,1,1v1.67a3.36,3.36,0,0,1,3.19-2.95,2.8,2.8,0,0,1,.48,0c.52,0,.62.47.62,1v1.19c0,.62-.29.88-.74.81a2.74,2.74,0,0,0-.62-.07c-1.14,0-2.86.69-2.86,4.65v3.79a.92.92,0,0,1-1,1h-1A.9.9,0,0,1,351.1,171.61Z" transform="translate(-14.07 -12.95)"/><path class="cls-2" d="M359.28,166.6a6.31,6.31,0,0,1,6.57-6.36,5.93,5.93,0,0,1,6.3,5.81c0,.62-.36,1-1,1h-8.88c-.05,1.83,1.57,3.33,4.07,3.33a5.47,5.47,0,0,0,3-.88,1,1,0,0,1,1.41.19l.21.26a1,1,0,0,1-.19,1.53,7.33,7.33,0,0,1-4.55,1.43C361.9,172.87,359.28,170.06,359.28,166.6Zm9.91-1.52a3.09,3.09,0,0,0-3.29-2.39,3.43,3.43,0,0,0-3.5,2.39Z" transform="translate(-14.07 -12.95)"/><path class="cls-3" d="M158,33.09c4.39-4.61,8.7-9.45,12.71-14.44-6.2,3.48-12.25,6.86-18.21,10.25-16,9.12-31.37,18.28-46.92,29.43-22.36,16-49.95,34.06-49.37-5.69C44.07,91.32,62.5,96.09,87.49,87.8a7.4,7.4,0,0,1,9.62,5.76c2.17,12.42,1.41,24.89-.79,37.26-3.4,19.18-13.66,41.19-20,54-3.28,6.62-5.52,10.81-5.26,10.93l.08,0A82.38,82.38,0,0,0,82,186.51a129.24,129.24,0,0,0,18.15-23.22v0A157.92,157.92,0,0,0,117,126.11c.64.1,1,.13,1,.13l.13.06c2.09.43,4.12.87,6,1.34,12.65,3.08,20.73,7.64,7.46,21.3-5.56,5.72-14.87,13-29.17,22.52,94.76-32.94,36.81-60.16,19.11-64.55A134.76,134.76,0,0,0,121,69.85c-.14-.93-.27-1.85-.43-2.78,6.88-5.64,18.57-15.26,30.53-27Q154.55,36.7,158,33.09Z" transform="translate(-14.07 -12.95)"/><path class="cls-4" d="M171.08,18.33a.51.51,0,0,0-.63-.11l-2.67,1.49c-5.27,3-10.44,5.85-15.54,8.75-14.74,8.39-30.64,17.76-47,29.46C90.23,68.71,73.41,79.81,64.15,75,59,72.3,56.53,64.79,56.7,52.64a.49.49,0,0,0-.42-.5.49.49,0,0,0-.55.35c-5.41,17.22-5.11,28.95.89,34.86,5.66,5.56,16.1,5.88,31,.93a6.9,6.9,0,0,1,9,5.36c1.93,11.09,1.67,23.22-.79,37.09-2.53,14.22-9.06,31.86-20,53.91-1,2-1.86,3.73-2.61,5.22-2.63,5.23-2.83,5.68-2.69,6.08a.57.57,0,0,0,.3.31.47.47,0,0,0,.17,0,.74.74,0,0,0,.38-.11,83,83,0,0,0,11-9.3,129.19,129.19,0,0,0,18.22-23.33,159.26,159.26,0,0,0,16.79-36.87l.51.06.06,0,.1,0c1.7.35,3.92.82,6,1.33,6.1,1.49,12.5,3.57,13.69,7.71.91,3.17-1.21,7.34-6.47,12.76-5.83,6-15.34,13.34-29.08,22.45a.51.51,0,0,0-.18.64.5.5,0,0,0,.62.25c35.9-12.48,53.8-25.46,53.2-38.58-.64-13.93-22.7-24-33.71-26.82a135.66,135.66,0,0,0-.66-36.76l-.13-.83c-.08-.56-.16-1.11-.26-1.67,6-4.92,18.19-14.92,30.34-26.84,2.38-2.34,4.7-4.69,6.9-7,4.71-4.95,9-9.82,12.74-14.48A.5.5,0,0,0,171.08,18.33ZM157.63,32.75c-2.19,2.29-4.51,4.64-6.88,7-12.27,12-24.58,22.13-30.5,27a.49.49,0,0,0-.17.47c.11.64.21,1.28.3,1.93l.13.83a134.49,134.49,0,0,1,.6,36.93.5.5,0,0,0,.38.55c10.62,2.63,32.76,12.45,33.38,26,.56,12.17-15.85,24.37-48.77,36.27,12-8.14,20.53-14.82,25.92-20.37s7.74-10.19,6.72-13.73c-1.33-4.64-8-6.85-14.41-8.41-2.1-.51-4.31-1-6-1.33l-.08,0-.17,0s-.37,0-.95-.13a.5.5,0,0,0-.56.35A158.28,158.28,0,0,1,99.74,163a127.7,127.7,0,0,1-18.07,23.13,83.59,83.59,0,0,1-9.59,8.3c.49-1,1.24-2.52,2.06-4.15s1.64-3.25,2.61-5.22c11-22.15,17.52-39.87,20.06-54.19,2.49-14,2.75-26.23.8-37.43a7.91,7.91,0,0,0-10.27-6.14c-14.55,4.82-24.65,4.59-30-.7S51.45,71.08,55.72,56c.3,10.72,2.92,17.23,8,19.87C73.45,81,89.88,70.2,105.86,58.74c16.29-11.68,32.15-21,46.88-29.41,5.09-2.9,10.26-5.79,15.53-8.74l.38-.22C165.34,24.38,161.64,28.54,157.63,32.75Z" transform="translate(-14.07 -12.95)"/><path class="cls-3" d="M95.82,57.49A15.26,15.26,0,1,0,80.56,42.24,15.28,15.28,0,0,0,95.82,57.49Z" transform="translate(-14.07 -12.95)"/><path class="cls-4" d="M95.82,58a15.76,15.76,0,1,1,15.75-15.75A15.77,15.77,0,0,1,95.82,58Zm0-30.51a14.76,14.76,0,1,0,14.75,14.76A14.78,14.78,0,0,0,95.82,27.48Z" transform="translate(-14.07 -12.95)"/><path class="cls-5" d="M151.1,40.07a38.31,38.31,0,0,0,7.05-6.85l-.16-.13Q154.55,36.69,151.1,40.07Z" transform="translate(-14.07 -12.95)"/><path class="cls-5" d="M105.57,58.33C121.12,47.18,136.46,38,152.49,28.9A87.93,87.93,0,1,0,73.35,184l3,.83c6.35-12.85,16.61-34.86,20-54,2.2-12.37,3-24.84.79-37.26a7.4,7.4,0,0,0-9.62-5.76c-25,8.29-43.42,3.52-31.29-35.16C55.62,92.39,83.21,74.36,105.57,58.33ZM95.82,27A15.26,15.26,0,1,1,80.56,42.24,15.28,15.28,0,0,1,95.82,27Z" transform="translate(-14.07 -12.95)"/><path class="cls-1" d="M293.15,51.83l-5.38-2c-2.27-.76-3.95-1.69-3.95-3.53,0-2,1.68-3.7,4.37-3.7a5.75,5.75,0,0,1,4.2,1.59c1.52,1.43,2.69,2.19,4.88,1.6l2.35-.59c2.77-.67,4-2.85,2.35-5.29-3.19-4.79-8.23-6.55-13.78-6.55-9.33,0-16.05,5.54-16.05,13.61,0,7.81,7.73,11.09,12.19,12.52l5.29,1.85c2.77,1,4,1.93,4,3.78,0,2.27-2.26,3.78-5.54,3.78a8.41,8.41,0,0,1-6.47-2.52c-1.77-1.76-2.78-2.86-5-2.27l-2.61.59c-2.6.67-3.95,2.52-2.69,5,2.86,5.8,9.08,8.66,16.72,8.66,9.33,0,17.4-4.46,17.4-13.53C305.25,59.56,302.06,54.77,293.15,51.83Z" transform="translate(-14.07 -12.95)"/></svg>